<svg width="399" height="98" viewBox="0 0 399 98" fill="none" xmlns="http://www.w3.org/2000/svg">
<path d="M109.04 38C112.027 37.3067 114.8 36.96 117.36 36.96C119.92 36.96 122.08 37.04 123.84 37.2V69.12C125.92 69.92 127.387 70.8267 128.24 71.84L127.44 78H109.04L108.24 71.84C108.987 70.8267 110.453 69.92 112.64 69.12V46.88C110.773 46.24 109.307 45.3333 108.24 44.16L109.04 38ZM118.08 32.48C113.653 32.48 111.44 30.48 111.44 26.48C111.44 22.4267 113.653 20.4 118.08 20.4C122.56 20.4 124.8 22.4267 124.8 26.48C124.8 30.48 122.56 32.48 118.08 32.48ZM155.439 47.84C151.386 47.84 148.586 48.6133 147.039 50.16V68.48C151.359 69.28 154.319 70.4 155.919 71.84L155.119 78H132.239L131.439 71.84C132.186 70.8267 133.653 69.92 135.839 69.12V46.88C133.973 46.24 132.506 45.3333 131.439 44.16L132.239 38C135.173 37.36 137.813 37.04 140.159 37.04C142.506 37.04 144.453 37.0933 145.999 37.2V42.24C147.226 40.8 148.799 39.6267 150.719 38.72C152.639 37.76 154.373 37.28 155.919 37.28C157.519 37.28 158.613 37.4133 159.199 37.68L158.959 48.08C157.893 47.92 156.719 47.84 155.439 47.84ZM180.935 78.64C174.642 78.64 169.975 76.96 166.935 73.6C163.895 70.24 162.375 65.1733 162.375 58.4C162.375 51.5733 164.055 46.3733 167.415 42.8C170.828 39.1733 175.708 37.36 182.055 37.36C188.402 37.36 193.095 38.96 196.135 42.16C199.228 45.36 200.775 50.3733 200.775 57.2C200.775 63.9733 199.042 69.2533 195.575 73.04C192.162 76.7733 187.282 78.64 180.935 78.64ZM173.895 57.68C173.895 66.2133 176.455 70.48 181.575 70.48C184.188 70.48 186.108 69.52 187.335 67.6C188.615 65.6267 189.255 62.4267 189.255 58C189.255 49.68 186.642 45.52 181.415 45.52C178.855 45.52 176.962 46.4533 175.735 48.32C174.508 50.1333 173.895 53.2533 173.895 57.68ZM205.677 38C208.61 37.36 211.25 37.04 213.597 37.04C215.944 37.04 217.89 37.0933 219.437 37.2V41.2C220.77 40.08 222.53 39.1733 224.717 38.48C226.957 37.7333 229.09 37.36 231.117 37.36C236.344 37.36 239.997 38.5867 242.077 41.04C244.21 43.4933 245.277 47.7333 245.277 53.76V69.12C247.357 69.92 248.824 70.8267 249.677 71.84L248.877 78H230.477L229.677 71.84C230.424 70.8267 231.89 69.92 234.077 69.12V53.28C234.077 50.4 233.597 48.48 232.637 47.52C231.73 46.5067 230.077 46 227.677 46C225.277 46 222.877 46.8533 220.477 48.56V69.12C222.557 69.92 224.024 70.8267 224.877 71.84L224.077 78H205.677L204.877 71.84C205.624 70.8267 207.09 69.92 209.277 69.12V46.88C207.41 46.24 205.944 45.3333 204.877 44.16L205.677 38ZM268.455 44.56C264.935 44.56 263.175 45.6 263.175 47.68C263.175 49.6533 265.015 51.12 268.695 52.08L275.015 53.76C281.522 55.4667 284.775 59.2267 284.775 65.04C284.775 69.04 283.362 72.32 280.535 74.88C277.762 77.3867 273.308 78.64 267.175 78.64C261.095 78.64 256.348 77.7867 252.935 76.08C252.882 75.4933 252.855 74.9067 252.855 74.32C252.855 71.3867 253.442 68.7467 254.615 66.4H261.255C261.948 67.68 262.402 69.0133 262.615 70.4C263.682 70.72 265.202 70.88 267.175 70.88C271.868 70.88 274.215 69.5467 274.215 66.88C274.215 66.0267 273.895 65.3333 273.255 64.8C272.615 64.2133 271.362 63.6533 269.495 63.12L263.175 61.28C259.922 60.3733 257.388 59.04 255.575 57.28C253.762 55.4667 252.855 52.8267 252.855 49.36C252.855 45.84 254.268 42.96 257.095 40.72C259.922 38.48 263.948 37.36 269.175 37.36C274.455 37.36 278.908 38.1333 282.535 39.68C282.588 40.2133 282.615 40.7467 282.615 41.28C282.615 44.0533 282.028 46.6133 280.855 48.96H274.295C273.602 47.7333 273.148 46.4533 272.935 45.12C271.442 44.7467 269.948 44.56 268.455 44.56ZM307.029 78.64C300.735 78.64 296.069 76.96 293.029 73.6C289.989 70.24 288.469 65.1733 288.469 58.4C288.469 51.5733 290.149 46.3733 293.509 42.8C296.922 39.1733 301.802 37.36 308.149 37.36C314.495 37.36 319.189 38.96 322.229 42.16C325.322 45.36 326.869 50.3733 326.869 57.2C326.869 63.9733 325.135 69.2533 321.669 73.04C318.255 76.7733 313.375 78.64 307.029 78.64ZM299.989 57.68C299.989 66.2133 302.549 70.48 307.669 70.48C310.282 70.48 312.202 69.52 313.429 67.6C314.709 65.6267 315.349 62.4267 315.349 58C315.349 49.68 312.735 45.52 307.509 45.52C304.949 45.52 303.055 46.4533 301.829 48.32C300.602 50.1333 299.989 53.2533 299.989 57.68ZM360.491 74.64C356.811 77.3067 352.464 78.64 347.451 78.64C342.491 78.64 339.024 77.6 337.051 75.52C335.077 73.44 334.091 70.0533 334.091 65.36V46.88C332.224 46.24 330.757 45.3333 329.691 44.16L330.491 38C333.477 37.3067 336.251 36.96 338.811 36.96C341.371 36.96 343.531 37.04 345.291 37.2V62.72C345.291 65.6 345.717 67.52 346.571 68.48C347.477 69.3867 349.237 69.84 351.851 69.84C354.464 69.84 356.891 68.9867 359.131 67.28V46.88C357.264 46.24 355.797 45.3333 354.731 44.16L355.531 38C358.517 37.3067 361.291 36.96 363.851 36.96C366.411 36.96 368.571 37.04 370.331 37.2V68.4C372.197 68.7733 373.664 69.2267 374.731 69.76V76.08C371.531 77.7867 367.504 78.64 362.651 78.64C361.317 77.68 360.597 76.3467 360.491 74.64ZM377.842 21.2C380.829 20.5067 383.602 20.16 386.162 20.16C388.722 20.16 390.882 20.24 392.642 20.4V69.12C394.722 69.92 396.189 70.8267 397.042 71.84L396.242 78H377.842L377.042 71.84C377.789 70.8267 379.255 69.92 381.442 69.12V30.08C379.575 29.44 378.109 28.5333 377.042 27.36L377.842 21.2Z" fill="#2D2A3A"/>
<rect x="13.435" y="29" width="60" height="19" rx="9.5" transform="rotate(45 13.435 29)" fill="#EF7A76" fill-opacity="0.8"/>
<rect x="29" y="71.4263" width="60" height="19" rx="9.5" transform="rotate(-45 29 71.4263)" fill="#7024C0" fill-opacity="0.8"/>
<rect x="33" y="21" width="19" height="19" rx="9.5" fill="#7024C0" fill-opacity="0.8"/>
</svg>
