<svg width="426" height="115" viewBox="0 0 426 115" fill="none" xmlns="http://www.w3.org/2000/svg">
<path d="M109.04 55C112.027 54.3067 114.8 53.96 117.36 53.96C119.92 53.96 122.08 54.04 123.84 54.2V86.12C125.92 86.92 127.387 87.8267 128.24 88.84L127.44 95H109.04L108.24 88.84C108.987 87.8267 110.453 86.92 112.64 86.12V63.88C110.773 63.24 109.307 62.3333 108.24 61.16L109.04 55ZM118.08 49.48C113.653 49.48 111.44 47.48 111.44 43.48C111.44 39.4267 113.653 37.4 118.08 37.4C122.56 37.4 124.8 39.4267 124.8 43.48C124.8 47.48 122.56 49.48 118.08 49.48ZM155.439 64.84C151.386 64.84 148.586 65.6133 147.039 67.16V85.48C151.359 86.28 154.319 87.4 155.919 88.84L155.119 95H132.239L131.439 88.84C132.186 87.8267 133.653 86.92 135.839 86.12V63.88C133.973 63.24 132.506 62.3333 131.439 61.16L132.239 55C135.173 54.36 137.813 54.04 140.159 54.04C142.506 54.04 144.453 54.0933 145.999 54.2V59.24C147.226 57.8 148.799 56.6267 150.719 55.72C152.639 54.76 154.373 54.28 155.919 54.28C157.519 54.28 158.613 54.4133 159.199 54.68L158.959 65.08C157.893 64.92 156.719 64.84 155.439 64.84ZM180.935 95.64C174.642 95.64 169.975 93.96 166.935 90.6C163.895 87.24 162.375 82.1733 162.375 75.4C162.375 68.5733 164.055 63.3733 167.415 59.8C170.828 56.1733 175.708 54.36 182.055 54.36C188.402 54.36 193.095 55.96 196.135 59.16C199.228 62.36 200.775 67.3733 200.775 74.2C200.775 80.9733 199.042 86.2533 195.575 90.04C192.162 93.7733 187.282 95.64 180.935 95.64ZM173.895 74.68C173.895 83.2133 176.455 87.48 181.575 87.48C184.188 87.48 186.108 86.52 187.335 84.6C188.615 82.6267 189.255 79.4267 189.255 75C189.255 66.68 186.642 62.52 181.415 62.52C178.855 62.52 176.962 63.4533 175.735 65.32C174.508 67.1333 173.895 70.2533 173.895 74.68ZM205.677 55C208.61 54.36 211.25 54.04 213.597 54.04C215.944 54.04 217.89 54.0933 219.437 54.2V58.2C220.77 57.08 222.53 56.1733 224.717 55.48C226.957 54.7333 229.09 54.36 231.117 54.36C236.344 54.36 239.997 55.5867 242.077 58.04C244.21 60.4933 245.277 64.7333 245.277 70.76V86.12C247.357 86.92 248.824 87.8267 249.677 88.84L248.877 95H230.477L229.677 88.84C230.424 87.8267 231.89 86.92 234.077 86.12V70.28C234.077 67.4 233.597 65.48 232.637 64.52C231.73 63.5067 230.077 63 227.677 63C225.277 63 222.877 63.8533 220.477 65.56V86.12C222.557 86.92 224.024 87.8267 224.877 88.84L224.077 95H205.677L204.877 88.84C205.624 87.8267 207.09 86.92 209.277 86.12V63.88C207.41 63.24 205.944 62.3333 204.877 61.16L205.677 55ZM268.455 61.56C264.935 61.56 263.175 62.6 263.175 64.68C263.175 66.6533 265.015 68.12 268.695 69.08L275.015 70.76C281.522 72.4667 284.775 76.2267 284.775 82.04C284.775 86.04 283.362 89.32 280.535 91.88C277.762 94.3867 273.308 95.64 267.175 95.64C261.095 95.64 256.348 94.7867 252.935 93.08C252.882 92.4933 252.855 91.9067 252.855 91.32C252.855 88.3867 253.442 85.7467 254.615 83.4H261.255C261.948 84.68 262.402 86.0133 262.615 87.4C263.682 87.72 265.202 87.88 267.175 87.88C271.868 87.88 274.215 86.5467 274.215 83.88C274.215 83.0267 273.895 82.3333 273.255 81.8C272.615 81.2133 271.362 80.6533 269.495 80.12L263.175 78.28C259.922 77.3733 257.388 76.04 255.575 74.28C253.762 72.4667 252.855 69.8267 252.855 66.36C252.855 62.84 254.268 59.96 257.095 57.72C259.922 55.48 263.948 54.36 269.175 54.36C274.455 54.36 278.908 55.1333 282.535 56.68C282.588 57.2133 282.615 57.7467 282.615 58.28C282.615 61.0533 282.028 63.6133 280.855 65.96H274.295C273.602 64.7333 273.148 63.4533 272.935 62.12C271.442 61.7467 269.948 61.56 268.455 61.56ZM307.029 95.64C300.735 95.64 296.069 93.96 293.029 90.6C289.989 87.24 288.469 82.1733 288.469 75.4C288.469 68.5733 290.149 63.3733 293.509 59.8C296.922 56.1733 301.802 54.36 308.149 54.36C314.495 54.36 319.189 55.96 322.229 59.16C325.322 62.36 326.869 67.3733 326.869 74.2C326.869 80.9733 325.135 86.2533 321.669 90.04C318.255 93.7733 313.375 95.64 307.029 95.64ZM299.989 74.68C299.989 83.2133 302.549 87.48 307.669 87.48C310.282 87.48 312.202 86.52 313.429 84.6C314.709 82.6267 315.349 79.4267 315.349 75C315.349 66.68 312.735 62.52 307.509 62.52C304.949 62.52 303.055 63.4533 301.829 65.32C300.602 67.1333 299.989 70.2533 299.989 74.68ZM360.491 91.64C356.811 94.3067 352.464 95.64 347.451 95.64C342.491 95.64 339.024 94.6 337.051 92.52C335.077 90.44 334.091 87.0533 334.091 82.36V63.88C332.224 63.24 330.757 62.3333 329.691 61.16L330.491 55C333.477 54.3067 336.251 53.96 338.811 53.96C341.371 53.96 343.531 54.04 345.291 54.2V79.72C345.291 82.6 345.717 84.52 346.571 85.48C347.477 86.3867 349.237 86.84 351.851 86.84C354.464 86.84 356.891 85.9867 359.131 84.28V63.88C357.264 63.24 355.797 62.3333 354.731 61.16L355.531 55C358.517 54.3067 361.291 53.96 363.851 53.96C366.411 53.96 368.571 54.04 370.331 54.2V85.4C372.197 85.7733 373.664 86.2267 374.731 86.76V93.08C371.531 94.7867 367.504 95.64 362.651 95.64C361.317 94.68 360.597 93.3467 360.491 91.64ZM377.842 38.2C380.829 37.5067 383.602 37.16 386.162 37.16C388.722 37.16 390.882 37.24 392.642 37.4V86.12C394.722 86.92 396.189 87.8267 397.042 88.84L396.242 95H377.842L377.042 88.84C377.789 87.8267 379.255 86.92 381.442 86.12V47.08C379.575 46.44 378.109 45.5333 377.042 44.36L377.842 38.2Z" fill="#2D2A3A"/>
<rect x="13.4351" y="46" width="60" height="19" rx="9.5" transform="rotate(45 13.4351 46)" fill="#EF7A76" fill-opacity="0.8"/>
<rect x="29" y="88.4263" width="60" height="19" rx="9.5" transform="rotate(-45 29 88.4263)" fill="#7024C0" fill-opacity="0.8"/>
<rect x="33" y="38" width="19" height="19" rx="9.5" fill="#F18F35" fill-opacity="0.8"/>
<g clip-path="url(#clip0)">
<path d="M362.432 32.8923C362.432 32.8923 367.938 20.7291 381.919 17.6919C381.919 17.6919 388.362 11.1881 403.564 18.5541C403.564 18.5541 407.749 22.5518 408.226 24.468C408.226 24.468 415.03 26.8911 413.602 34.9909C413.602 34.9909 414.619 37.3097 413.319 42.3766L412.472 53.5333L406.521 56.6598L406.573 54.6327C406.573 54.6327 402.876 46.1368 402.998 43.7154C402.998 43.7154 401.807 42.3851 401.337 45.0524L401.988 49.4441L364.085 39.6908L362.432 32.8923Z" fill="#E14B4B"/>
<path d="M406.703 34.6866C406.456 29.4977 405.668 24.335 404.329 19.3062C405.21 20.2063 406.659 21.7575 407.527 23.0721C407.589 26.9576 407.306 30.8441 406.703 34.6866Z" fill="#D03F3E"/>
<path d="M394.083 21.1906C394.526 21.2439 394.874 21.489 395.157 21.8317C394.806 21.611 394.438 21.3997 394.083 21.1906Z" fill="#D03F3E"/>
<path d="M402.986 43.6989C402.861 43.5778 401.797 42.5483 401.348 45.0233C400.939 44.2188 400.631 43.333 400.248 42.5187C399.185 40.2289 397.388 38.3604 395.632 36.5345C392.273 33.0456 388.807 29.4883 384.469 27.3308C386.743 27.61 388.794 28.8031 390.747 29.9892C394.613 32.3337 398.563 34.9489 400.685 38.9295C401.087 36.5803 400.207 34.2238 399.339 32.0056C398.203 29.0921 397.066 26.1766 395.929 23.2631C395.737 22.765 395.49 22.2202 395.155 21.8309C396.814 22.8208 398.387 23.9523 399.491 25.5169C400.959 27.5974 401.417 30.1952 401.779 32.7163C402.301 36.3549 402.705 40.0304 402.986 43.6989Z" fill="#D03F3E"/>
<path d="M353.404 44.9542C353.676 43.4115 353.35 45.1799 353.45 44.5311C353.088 46.256 354.81 36.7039 356.464 35.9558C357.708 35.0796 359.242 32.0285 359.871 33.4123C360.7 32.9374 361.047 33.9148 361.641 32.9239C362.084 32.7834 362.561 31.8793 362.71 32.9576C363.079 32.7794 363.266 33.7676 363.807 33.5699C364.168 34.3886 364.875 34.0512 365.659 34.8145C365.536 35.5088 366.136 34.0383 366.504 34.8645C366.892 35.589 367.649 35.2026 368.402 34.9124C369.208 34.32 369.971 34.0399 370.395 34.8079C370.719 35.358 371.266 35.5783 372.015 34.9884C372.742 34.5182 373.388 34.8446 373.901 35.6077C374.377 36.5953 374.944 36.7633 375.466 36.2714C375.779 36.9662 376.186 36.19 376.117 36.5802C376.112 36.6082 376.172 37.2047 376.568 36.6412C376.884 36.5339 377.212 37.0869 377.78 36.826C378.157 37.6456 378.907 36.8906 379.538 37.1381C380.312 36.5895 381.119 36.1788 381.631 37.5793C382.465 37.1569 383.191 37.4707 383.842 38.1529C384.633 38.0467 385.338 38.3526 385.962 38.8629C386.68 38.8265 387.126 40.075 387.773 39.7083C388.437 39.2559 389.006 38.855 389.064 40.6951C389.129 40.327 389.148 41.2341 389.529 40.8969C389.807 41.1481 390.323 40.8409 390.781 41.4538C391.336 41.5085 391.931 41.9146 392.597 42.292C393.439 41.6565 393.987 43.0569 394.756 43.3411C395.478 43.8873 396.124 45.0101 397.037 44.5253C397.979 43.8847 398.562 45.1883 399.221 45.7727C399.71 47.3175 400.589 46.344 401.086 47.0114C401.63 47.4107 402.173 47.3042 402.411 48.1673C402.408 48.1853 402.548 49.2766 402.595 49.3365C402.671 49.5149 402.57 50.7516 402.696 50.683C402.93 51.9642 402.239 57.4046 401.12 59.3983C401.121 59.3923 401.097 59.0106 400.797 59.6632C400.595 59.7555 400.393 59.3073 399.863 60.1816C399.409 60.6276 399.001 60.2523 398.38 60.5327C397.661 61.3694 397.081 60.8442 396.406 60.2981C395.731 59.7479 394.94 59.2722 394 59.0589C394.167 58.1125 393.995 58.7569 393.846 58.974C393.65 59.4512 393.659 58.4521 393.391 58.7329C393.392 57.4869 392.893 58.7833 392.651 58.3548C392.399 57.97 391.982 58.2513 391.636 57.8623C391.059 58.7818 390.858 57.3145 390.362 57.2744C389.999 56.476 389.566 55.8179 388.839 56.6097C388.251 56.6072 387.856 55.2771 387.082 55.8914C386.55 55.1272 385.635 56.3131 385.102 55.138C384.332 55.3014 383.733 54.3004 382.914 54.3705C382.183 53.9321 381.286 54.2547 380.529 53.6096C379.674 53.5207 378.773 53.529 377.962 52.8743C377.082 52.6098 376.266 51.8222 375.224 52.1872C374.344 51.6278 373.322 51.7405 372.329 51.5675C371.398 51.0423 370.344 51.0875 369.289 51.0335C367.567 50.2614 365.924 50.3245 364.513 50.2181C363.098 50.1296 361.957 49.6396 360.937 49.4473C359.958 49.0209 359.122 48.7662 358.389 48.7463C357.524 49.4707 357.165 48.1509 356.693 48.1338C356.257 47.9206 356.044 47.0888 355.679 47.6269C355.422 47.5546 355.372 46.7969 355.169 47.2419C355.074 47.0807 354.968 47.3199 354.992 46.9981C354.887 47.4026 354.785 47.9705 354.972 46.9121C354.75 48.1686 354.569 47.1381 354.274 46.4362C353.849 46.4479 353.268 47.0263 353.404 44.9542Z" fill="#DAE5EF"/>
<path d="M416.57 56.1254C417.843 59.2278 415.765 63.2539 412.663 64.5266C409.56 65.7992 406.013 64.3135 404.741 61.211C403.468 58.1085 404.954 54.5619 408.056 53.2893C411.157 52.0163 415.298 53.0209 416.57 56.1254Z" fill="#DAE5EF"/>
<path d="M415.203 62.5934C414.517 63.4421 413.635 64.1119 412.656 64.517C409.561 65.8074 406.007 64.3143 404.74 61.2025C403.47 58.1107 404.943 54.5536 408.055 53.2867C408.209 53.2314 408.343 53.1725 408.494 53.1372C407.212 54.7887 406.83 57.0733 407.682 59.1423C408.89 62.1199 412.217 63.6143 415.203 62.5934Z" fill="#CBD6E0"/>
<path d="M408.746 53.3076C408.784 53.2318 408.787 53.1476 408.775 53.065C408.764 53.0672 408.755 53.0718 408.744 53.0741L408.746 53.3076Z" fill="#CBD6E0"/>
</g>
<defs>
<clipPath id="clip0">
<rect x="361.287" width="65" height="65" transform="rotate(10 361.287 0)" fill="white"/>
</clipPath>
</defs>
</svg>
